<?xml version="1.0" encoding="UTF-8" standalone="no"?>
<!DOCTYPE svg PUBLIC "-//W3C//DTD SVG 1.1//EN"
 "http://www.w3.org/Graphics/SVG/1.1/DTD/svg11.dtd">
<!-- Generated by graphviz version 2.38.0 (20140413.2041)
 -->
<!-- Title: %3 Pages: 1 -->
<svg width="83pt" height="215pt"
 viewBox="0.00 0.00 82.95 215.38" xmlns="http://www.w3.org/2000/svg" xmlns:xlink="http://www.w3.org/1999/xlink">
<g id="graph0" class="graph" transform="scale(1 1) rotate(0) translate(4 211.38)">
<title>%3</title>
<polygon fill="white" stroke="none" points="-4,4 -4,-211.38 78.9533,-211.38 78.9533,4 -4,4"/>
<!-- A -->
<g id="node1" class="node"><title>A</title>
<polygon fill="lightgray" stroke="black" points="25.9767,-207.38 2.97666,-207.38 2.97666,-189.38 25.9767,-189.38 25.9767,-207.38"/>
<text text-anchor="middle" x="14.4767" y="-196.18" font-family="Times,serif" font-size="9.00">A</text>
</g>
<!-- A XOR B -->
<g id="node3" class="node"><title>A XOR B</title>
<ellipse fill="lightblue" stroke="black" cx="37.4767" cy="-37.4767" rx="37.4533" ry="37.4533"/>
<text text-anchor="middle" x="37.4767" y="-35.2767" font-family="Times,serif" font-size="9.00">A XOR B</text>
</g>
<!-- A&#45;&gt;A XOR B -->
<g id="edge2" class="edge"><title>A&#45;&gt;A XOR B</title>
<path fill="none" stroke="red" stroke-width="1.55643" d="M12.3263,-189.191C8.59654,-173.742 1.84141,-139.302 7.47666,-110.953 9.48791,-100.836 12.9356,-90.3597 16.7935,-80.6236"/>
<polygon fill="red" stroke="red" stroke-width="1.55643" points="20.1161,-81.7505 20.7502,-71.1746 13.6593,-79.0467 20.1161,-81.7505"/>
</g>
<!-- 949 -->
<g id="node4" class="node"><title>949</title>
<ellipse fill="white" stroke="black" cx="37.4767" cy="-132.167" rx="21.4286" ry="21.4286"/>
<text text-anchor="middle" x="37.4767" y="-129.967" font-family="Times,serif" font-size="9.00">949</text>
</g>
<!-- A&#45;&gt;949 -->
<g id="edge4" class="edge"><title>A&#45;&gt;949</title>
<path fill="none" stroke="green" stroke-width="0.540739" d="M17.3896,-189.247C19.8737,-182.312 23.5996,-171.91 27.1704,-161.94"/>
<polygon fill="green" stroke="green" stroke-width="0.540739" points="30.5606,-162.855 30.6377,-152.26 23.9706,-160.494 30.5606,-162.855"/>
</g>
<!-- B -->
<g id="node2" class="node"><title>B</title>
<polygon fill="lightgray" stroke="black" points="70.9767,-207.38 47.9767,-207.38 47.9767,-189.38 70.9767,-189.38 70.9767,-207.38"/>
<text text-anchor="middle" x="59.4767" y="-196.18" font-family="Times,serif" font-size="9.00">B</text>
</g>
<!-- B&#45;&gt;A XOR B -->
<g id="edge3" class="edge"><title>B&#45;&gt;A XOR B</title>
<path fill="none" stroke="green" stroke-width="0.509708" d="M61.7843,-189.196C65.7971,-173.757 73.1175,-139.33 67.4767,-110.953 65.4654,-100.836 62.0177,-90.3597 58.1598,-80.6236"/>
<polygon fill="green" stroke="green" stroke-width="0.509708" points="61.294,-79.0467 54.2031,-71.1746 54.8373,-81.7505 61.294,-79.0467"/>
</g>
<!-- B&#45;&gt;949 -->
<g id="edge1" class="edge"><title>B&#45;&gt;949</title>
<path fill="none" stroke="red" stroke-width="0.489765" d="M56.6903,-189.247C54.3316,-182.363 50.8023,-172.061 47.4096,-162.159"/>
<polygon fill="red" stroke="red" stroke-width="0.489765" points="50.6632,-160.856 44.111,-152.531 44.0411,-163.125 50.6632,-160.856"/>
</g>
<!-- 949&#45;&gt;A XOR B -->
<g id="edge5" class="edge"><title>949&#45;&gt;A XOR B</title>
<path fill="none" stroke="green" stroke-width="2.26589" d="M37.4767,-110.596C37.4767,-103 37.4767,-94.0512 37.4767,-85.0886"/>
<polygon fill="green" stroke="green" stroke-width="2.26589" points="40.9768,-85.0353 37.4767,-75.0353 33.9768,-85.0353 40.9768,-85.0353"/>
</g>
</g>
</svg>
